<?xml version="1.0" encoding="utf-8"?>

<!-- Generator: Adobe Illustrator 16.0.3, SVG Export Plug-In . SVG Version: 6.00 Build 0)  -->
<!DOCTYPE svg PUBLIC "-//W3C//DTD SVG 1.1//EN" "http://www.w3.org/Graphics/SVG/1.1/DTD/svg11.dtd">
<svg version="1.1" id="Layer_1" xmlns="http://www.w3.org/2000/svg" xmlns:xlink="http://www.w3.org/1999/xlink" x="0px"
     y="0px"
     width="127.55px" height="101.29px" viewBox="0 0 127.55 101.29" enable-background="new 0 0 127.55 101.29"
     xml:space="preserve">
<g>
	<path id="path14" fill="#231F20"
	      d="M63.474,34.037c-7.622-0.165-13.686-6.501-13.522-14.122c0.08-3.694,1.593-7.134,4.261-9.688
		c2.668-2.553,6.17-3.917,9.86-3.835c7.624,0.165,13.692,6.5,13.526,14.123c-0.082,3.691-1.594,7.131-4.263,9.688
		C70.67,32.756,67.167,34.117,63.474,34.037 M53.426,9.407c-2.888,2.766-4.525,6.486-4.612,10.483
		c-0.178,8.248,6.388,15.105,14.635,15.284c3.999,0.088,7.788-1.386,10.676-4.152c2.887-2.763,4.526-6.487,4.61-10.484
		c0.18-8.248-6.388-15.104-14.638-15.281C60.103,5.166,56.312,6.641,53.426,9.407" />
	<path id="path16" fill="#231F20"
	      d="M63.356,39.511c-10.64-0.23-19.107-9.076-18.876-19.714c0.11-5.155,2.223-9.956,5.945-13.522
		c3.724-3.565,8.613-5.469,13.768-5.356c5.154,0.11,9.957,2.224,13.522,5.949c3.568,3.722,5.469,8.609,5.357,13.764
		C82.843,31.27,73.995,39.74,63.356,39.511 M49.792,5.615c-3.898,3.734-6.11,8.765-6.228,14.163
		c-0.241,11.145,8.626,20.406,19.771,20.648c11.146,0.243,20.411-8.63,20.65-19.775c0.12-5.396-1.875-10.518-5.607-14.417
		C74.64,2.333,69.61,0.12,64.212,0.005C58.813-0.113,53.693,1.88,49.792,5.615" />
	<path id="path18" fill="#231F20"
	      d="M67.797,32.235c-7.506,1.344-13.518-1.576-14.62-5.177c-0.711-2.332,0.321-2.839,0.487-4.521
		c-1.299,0.694-1.54-1.108-0.392-1.265c1.215-0.162,1.757,1.113,1.165,2.81c-0.848,2.44,0.644,3.57,1.063,3.445
		c0.019-0.126,0.172-0.438,0.244-0.576c-1.02-1.306-0.593-3.207,1.147-3.363c0.711-0.065,0.64,0.453,0.147,0.525
		c-1.337,0.191-1.272,1.685-0.718,1.875c0.099,0,0.212-0.028,0.312-0.126c-0.023-0.305,0.187-0.736,0.532-0.648
		c0.771,0.192,0.477,1.173-0.052,1.252c-0.198,0.604-0.578,1.446-0.494,1.883c0.078,0.436,0.385,0.522,0.636,0.27
		c0.187-0.185,0.276-0.633,0.396-1.123c-0.128-0.552,0.143-0.969,0.608-0.771c0.324,0.139,0.359,0.636,0.042,1.02
		c-0.042,0.474-0.25,1.011-0.204,1.373c0.046,0.364,0.542,0.338,0.721,0.141c0.18-0.195,0.363-1.478,0.436-1.759
		c-0.279-0.247-0.169-1.005,0.402-1.051c0.673-0.052,0.518,0.863,0.328,1.091c0.187,0.715-0.118,1.522,0.018,1.84
		c0.137,0.32,0.661,0.394,0.897,0.132c0.237-0.261-0.061-0.812,0.07-1.455c-0.227-0.553,0.036-0.999,0.366-1.025
		c0.75-0.062,0.538,0.614,0.399,1.089c0.038,0.487,0.121,1.065,0.29,1.515c0.108,0.289,0.589,0.354,0.749-0.019
		c0.1-0.233-0.128-0.896-0.183-1.362c-0.324-0.755-0.049-0.961,0.241-0.986c0.276-0.021,0.65,0.133,0.601,0.879
		c0.151,0.504,0.281,1.111,0.469,1.508c0.084,0.316,0.472,0.349,0.593,0.018c0.119-0.327-0.106-0.711-0.348-1.239
		c-0.539-0.521-0.05-0.922,0.258-0.95c0.305-0.023,0.784,0.059,0.684,0.874c0.166,0.494,0.276,0.945,0.386,1.206
		c0.127,0.3,0.547,0.338,0.728,0.141c0.18-0.199-0.166-0.548-0.254-0.976c-0.407-0.395-0.333-0.933,0.13-0.971
		c0.236-0.018,0.698,0.008,0.655,0.7c0.136,0.298,0.138,0.681,0.338,1.003c0.242,0.399,0.616,0.249,0.767-0.107
		c0.146-0.359-0.782-1.399-0.058-1.458c0.728-0.056,0.856,0.896,1.091,1.126c0.236,0.226,0.416,0.075,0.527-0.048
		c0.19-0.21-0.315-0.781,0.037-0.942c0.715-0.328,0.701,0.484,1.208,0.494c2.209,0.034,3.948-3.594,3.691-4.615
		c-0.74-0.441-0.481-1.535,0.139-1.547c1.523-0.025,1.309,2.125,0.151,4.623C73.111,30.263,69.387,31.948,67.797,32.235" />
	<path id="path20" fill="#231F20"
	      d="M69.765,14.392c-0.244,0.236-1.021,0.286-1.418,0.056c-0.328-0.193-0.403-1.637-0.237-2.025
		c0.166-0.391,1.86-0.406,1.994-0.138C70.238,12.552,70.011,14.157,69.765,14.392 M66.729,12.608
		c0.055,0.205,0.256,1.117,0.304,1.663c0.027,0.205-0.048,0.453-0.171,0.5c-0.303,0.117-0.81,0.086-1.085-0.019
		c-0.302-0.115-0.099-1.319-1.207-1.534c0.152-0.107,0.232-0.22,0.264-0.483c0.019-0.175,0.232-0.36,0.494-0.392
		c0.508-0.058,0.824-0.072,0.995-0.066C66.493,12.282,66.674,12.398,66.729,12.608 M64.582,18.584
		c-0.648-0.013-0.89-4.055-0.221-4.042C64.962,14.555,65.028,18.592,64.582,18.584 M71.017,14.995
		c-0.025-0.008-0.031-0.053-0.025-0.069c0.341-1.311,0.59-1.889,0.714-3.195c0.029-0.313-0.195-0.565-0.401-0.616
		c-0.807-0.202-1.181-0.194-1.493-0.219c-0.031-0.003-0.107-0.017-0.129-0.063c-0.095-0.188-0.232-0.759-0.234-1.048
		c0.472-1-0.37-1.347-1.164-1.333c-0.521-0.024-1.053,0.213-1.114,0.606c-0.07,0.756,0.765,1.034,1.064,1.059
		c0.05,0.108,0.172,0.638,0.193,0.848c0.002,0.025-0.024,0.056-0.059,0.056c-1.343,0.025-3.081,0.261-3.962,0.328
		c-0.126,0.02-0.188-0.052-0.213-0.125c-0.164-0.453-0.861-2.585,0.449-2.544c0.778,0.022,1.429-0.613,0.69-1.098
		c-0.189-0.125-1.183-0.246-1.722-0.152c-0.445,0.073-0.661,0.58-0.605,1.02c0.088,0.688-1.63,0.76-2.137,0.555
		c-0.361-0.149-0.809-0.579-0.964-0.859c-0.33-0.588-0.901-0.137-0.797,0.178c0.711,2.145,2.98,1.804,3.575,1.833
		c0.028,0.001,0.079,0.042,0.083,0.057c0.145,0.773,0.607,1.593,0.604,1.893c-0.283,0.316-0.161,0.987,0.236,1.103
		c-0.486,0.468-0.705,2.099-0.628,3.454c0.101,1.727,0.797,3.399,1.896,3.22c1.395-0.227,0.845-3.454,1.185-3.731
		c0.171-0.135,0.623-0.098,0.788-0.077c0.039,0.005,0.059,0.048,0.057,0.068c-0.11,1.266-0.41,3.297-0.485,3.838
		c-0.076,0.553-0.12,0.84,0.158,1.35c0.308,0.561,0.869,2.347,0.212,4.239c-0.02,0.072-0.08,0.098-0.103,0.103
		c-0.592,0.134-0.908,0.318-1.123,0.466c-0.233,0.157-0.483,0.487-0.313,0.688c0.248,0.225,1.841,0.141,2.332-0.598
		c0.012-0.018,0.046-0.087,0.051-0.102c0.171-0.477,0.384-0.821,0.543-1.127c0.736-1.401,0.843-3.125-0.164-3.904
		c-0.283-0.217-0.571-0.425-0.297-0.97c0.533-1.056,0.59-2.208,0.658-3.183c0.025-0.393,0.676-0.615,0.923-0.246
		c0.61,1.447,0.132,2.692,0.122,3.205c-0.013,0.515,0.182,0.753,0.249,1.063c0.415,1.885,0.207,3.409-0.171,5.354
		c-0.003,0.042-0.034,0.073-0.073,0.083c-0.442,0.147-0.713,0.24-0.989,0.435c-0.28,0.196-0.391,0.446-0.269,0.585
		c0.371,0.417,2.044-0.037,2.171-0.515c0.313-1.194,2.57-3.958,1.001-5.723c-0.718-0.808-0.718-0.484-0.726-0.892
		c-0.002-0.194,0.449-1.266,0.564-2.089c0.117-0.864-0.444-1.684-0.306-2.16c0.005-0.012,0.042-0.037,0.057-0.033
		c0.231,0.044,0.786,0.191,1.143,0.394c0.109,0.063,0.3,0.014,0.328-0.413C72.428,15.526,71.251,15.079,71.017,14.995" />
	<path id="path22" fill="#231F20"
	      d="M56.849,20.902c-0.229-0.128-0.052-0.587,0.28-0.638c0.231-0.034,1.019-0.128,1.294-0.01
		c0.21,0.091,0.359,0.535,0.24,0.668C58.437,21.171,57.176,21.083,56.849,20.902 M54.217,19.445
		c-0.022-0.274,0.347-0.582,0.628-0.522c0.226,0.047,0.928,0.788,0.961,0.962c0.059,0.316-0.195,0.569-0.407,0.584
		C55.068,20.492,54.241,19.742,54.217,19.445 M54.356,17.954c-0.161,0.194-0.522,0.313-0.696,0.174
		c-0.261-0.208-0.339-1.061-0.17-1.424c0.113-0.247,0.71-0.381,0.82-0.1C54.384,16.795,54.474,17.815,54.356,17.954 M54.559,15.532
		c-0.288,0.144-0.557-0.053-0.587-0.407c-0.03-0.355,0.809-1.226,1.111-1.141c0.148,0.042,0.37,0.322,0.347,0.574
		C55.414,14.73,54.727,15.448,54.559,15.532 M59.092,18.625c-0.302-0.131-1.081-1.157-0.804-1.437
		c0.26-0.261,1.355-0.814,1.531-0.651C60.501,17.169,59.681,18.881,59.092,18.625 M55.902,18.417c0-0.199,1.025-0.894,1.431-0.742
		c0.323,0.12,0.833,1.398,0.558,1.529C57.145,19.555,55.902,18.743,55.902,18.417 M56.157,15.297
		c0.147-0.033,0.829,1.027,0.704,1.417c-0.104,0.334-1.364,0.803-1.489,0.674C54.987,17.006,55.322,15.472,56.157,15.297
		 M59.253,15.574c0,0.328-1.14,0.872-1.368,0.739c-0.333-0.196-1.011-1.204-0.869-1.377C57.506,14.325,59.253,15.062,59.253,15.574
		 M58.275,13.343c0.069,0.153,0.156,0.359-0.005,0.537c-0.134,0.147-1.343,0.188-1.522,0.176c-0.383-0.024-0.56-0.415-0.435-0.612
		C56.543,13.089,58.141,13.059,58.275,13.343 M60.933,14.888c-0.041,0.212-0.389,0.294-0.539,0.276
		c-0.186-0.022-0.975-0.638-1.025-0.853c-0.066-0.284,0.124-0.465,0.305-0.51C60.164,13.678,60.99,14.585,60.933,14.888
		 M61.608,17.746c-0.18,0.118-0.519,0.141-0.662-0.077c-0.099-0.147-0.129-1.244-0.063-1.406c0.067-0.169,0.436-0.294,0.644-0.179
		C61.766,16.215,61.9,17.552,61.608,17.746 M60.437,18.84c0.187-0.016,0.535,0.025,0.638,0.279c0.11,0.277-0.656,1.143-1.012,1.243
		c-0.216,0.063-0.538-0.264-0.479-0.584C59.623,19.569,60.287,18.853,60.437,18.84 M62.474,16.388
		c-0.127-1.528-1.551-3.547-3.633-3.895c-2.265-0.374-5.779,0.531-6.159,3.855c-0.394,3.438,2.24,5.994,5.4,5.751
		C61.511,21.838,62.652,18.55,62.474,16.388" />
	<path id="path24" fill="#231F20"
	      d="M57.528,3.047l-0.098,0.77l-0.498,0.597l0.771,0.098l0.595,0.499l0.098-0.77l0.5-0.597
		l-0.771-0.1L57.528,3.047" />
	<path id="path26" fill="#231F20"
	      d="M71.954,36.451l-0.627-0.458l-0.776-0.046l0.457-0.63l0.049-0.776l0.627,0.46l0.776,0.047
		l-0.459,0.628L71.954,36.451" />
	<path id="path28" fill="#231F20"
	      d="M55.537,36.423l0.629-0.457l0.776-0.043l-0.454-0.63l-0.047-0.776l-0.629,0.457l-0.774,0.046
		l0.456,0.628L55.537,36.423" />
	<path id="path30" fill="#231F20"
	      d="M51.245,33.086l0.792-0.926c0.359-0.423,0.934-0.395,1.481,0.074
		c0.553,0.471,0.675,1.037,0.314,1.458l-0.791,0.929c-0.096,0.111-0.1,0.174,0.03,0.286l-0.283,0.214l-0.763-0.65l0.17-0.31
		c0.129,0.11,0.192,0.096,0.288-0.016l0.796-0.93c0.157-0.188,0.141-0.413-0.105-0.623c-0.253-0.215-0.481-0.199-0.639-0.013
		L51.74,33.51c-0.096,0.115-0.1,0.177,0.028,0.284l-0.281,0.217l-0.696-0.595l0.166-0.313
		C51.085,33.215,51.148,33.199,51.245,33.086" />
	<path id="path32" fill="#231F20"
	      d="M48.705,29.995l1.673-1.252l0.314,0.42l-0.524,1.768c-0.035,0.123-0.131,0.314-0.131,0.314
		s0.15-0.137,0.226-0.193L51,30.499c0.116-0.088,0.14-0.149,0.037-0.285l0.32-0.149l0.502,0.674l-0.229,0.268
		c-0.103-0.137-0.17-0.135-0.286-0.048l-1.229,0.922c-0.119,0.087-0.137,0.15-0.035,0.285l-0.322,0.147l-0.451-0.606l0.472-1.606
		c0.04-0.125,0.138-0.322,0.138-0.322s-0.153,0.144-0.24,0.207l-0.627,0.472c-0.119,0.088-0.137,0.148-0.035,0.287l-0.32,0.148
		l-0.506-0.673l0.232-0.266C48.525,30.088,48.585,30.083,48.705,29.995" />
	<path id="path34" fill="#231F20"
	      d="M49.349,26.79l0.435,0.881l-0.277,0.219c-0.076-0.155-0.143-0.166-0.273-0.098l-1.376,0.682
		c-0.133,0.064-0.161,0.121-0.086,0.274l-0.341,0.089l-0.437-0.879l0.277-0.22c0.075,0.153,0.139,0.166,0.273,0.1l1.374-0.682
		c0.131-0.067,0.164-0.125,0.089-0.279L49.349,26.79" />
	<path id="path36" fill="#231F20"
	      d="M46.229,24.163l2.261,0.202l0.198,0.677l-1.791,1.387c-0.13,0.102-0.146,0.155-0.101,0.307
		l-0.353,0.023l-0.277-0.938l0.31-0.171c0.044,0.136,0.099,0.154,0.212,0.071l0.867-0.651c0.144-0.1,0.448-0.246,0.448-0.246
		s-0.338,0.038-0.513,0.029l-1.089-0.105c-0.147-0.011-0.176,0.051-0.136,0.189l-0.352,0.031l-0.246-0.836l0.312-0.166
		C46.025,24.12,46.065,24.148,46.229,24.163" />
	<path id="path38" fill="#231F20"
	      d="M47.901,20.62l0.184,2.026l-0.336,0.108c-0.017-0.171-0.075-0.202-0.219-0.189L46,22.703
		c-0.148,0.016-0.196,0.058-0.18,0.229l-0.352-0.046l-0.176-1.937l0.625-0.057l0.079,0.266c-0.202,0.049-0.243,0.108-0.216,0.403
		l0.04,0.448l0.634-0.057l-0.038-0.41c-0.016-0.172-0.052-0.233-0.187-0.22l0.041-0.287l0.625-0.059l0.098,0.274
		c-0.141,0.016-0.162,0.08-0.148,0.253l0.038,0.408l0.687-0.063l-0.057-0.624c-0.023-0.27-0.105-0.314-0.295-0.331l0.03-0.292
		L47.901,20.62" />
	<path id="path40" fill="#231F20"
	      d="M45.821,18.156l-0.044,0.389l0.75,0.084l0.044-0.377c0.031-0.283-0.097-0.449-0.325-0.474
		C46.015,17.753,45.852,17.876,45.821,18.156 M48.183,17.069l-0.087,0.776c-0.412,0.338-1.055-0.013-1.113,0.518l-0.036,0.314
		l0.5,0.057c0.144,0.015,0.204-0.014,0.221-0.185l0.336,0.112l-0.108,0.966l-0.351,0.039c0.02-0.174-0.033-0.216-0.176-0.23
		l-1.525-0.17c-0.146-0.017-0.204,0.014-0.223,0.185l-0.335-0.115l0.147-1.322c0.072-0.64,0.378-0.987,0.864-0.933
		c0.318,0.037,0.52,0.228,0.605,0.569c0.127-0.315,0.437-0.362,0.622-0.381c0.217-0.019,0.293-0.051,0.315-0.252l0.007-0.059
		L48.183,17.069" />
	<path id="path42" fill="#231F20"
	      d="M48.726,15.381c-0.159,0.493-0.432,0.799-0.566,0.928l-0.496-0.311l0.072-0.227
		c0.314,0,0.51-0.249,0.595-0.508c0.063-0.199,0.037-0.434-0.175-0.502c-0.183-0.06-0.309,0.053-0.513,0.439
		c-0.203,0.396-0.534,0.75-1.041,0.587c-0.495-0.161-0.632-0.691-0.451-1.257c0.139-0.429,0.365-0.728,0.491-0.857l0.469,0.297
		l-0.072,0.224c-0.272,0.028-0.436,0.255-0.5,0.457c-0.072,0.225-0.022,0.413,0.144,0.467c0.164,0.053,0.282-0.066,0.433-0.353
		c0.276-0.525,0.575-0.868,1.131-0.69C48.79,14.252,48.905,14.831,48.726,15.381" />
	<path id="path44" fill="#231F20"
	      d="M49.891,12.559l-0.448,0.872l-0.34-0.092c0.078-0.151,0.046-0.213-0.083-0.279l-1.365-0.698
		c-0.134-0.069-0.195-0.058-0.274,0.094l-0.274-0.223l0.448-0.871l0.339,0.092c-0.076,0.151-0.049,0.209,0.084,0.277l1.366,0.699
		c0.129,0.065,0.196,0.059,0.273-0.095L49.891,12.559" />
	<path id="path46" fill="#231F20"
	      d="M50.012,8.943c-0.164-0.081-0.262-0.091-0.425,0.131l-0.151,0.208l1.32,0.969
		c0.117,0.084,0.181,0.09,0.282-0.047l0.236,0.263L50.7,11.251l-0.324-0.143c0.103-0.141,0.079-0.202-0.038-0.286l-1.32-0.969
		l-0.151,0.208c-0.164,0.222-0.126,0.315,0.002,0.443l-0.212,0.195l-0.483-0.442l1.39-1.896l0.573,0.324L50.012,8.943" />
	<path id="path48" fill="#231F20"
	      d="M51.734,7.261c-0.13-0.076-0.397-0.3-0.397-0.3s0.192,0.3,0.257,0.433l0.281,0.665l0.493-0.461
		L51.734,7.261z M53.975,7.688l-0.704,0.658l-0.29-0.203c0.096-0.089,0.103-0.147-0.033-0.219l-0.19-0.096l-0.685,0.639l0.08,0.2
		c0.061,0.147,0.131,0.129,0.231,0.034l0.183,0.305l-0.608,0.566L51.67,9.37c0.111-0.105,0.13-0.161,0.064-0.313l-0.66-1.56
		c-0.043-0.095-0.104-0.124-0.227-0.009l-0.181-0.305l1.014-0.946l0.292,0.199c-0.124,0.119-0.108,0.174-0.01,0.221l1.517,0.77
		c0.14,0.073,0.197,0.067,0.312-0.04L53.975,7.688" />
	<path id="path50" fill="#231F20"
	      d="M55.446,6.786c-0.438,0.27-0.845,0.326-1.033,0.34l-0.176-0.561l0.203-0.123
		c0.237,0.202,0.55,0.14,0.781-0.002c0.178-0.111,0.311-0.309,0.194-0.5c-0.101-0.161-0.27-0.158-0.676,0.003
		c-0.411,0.171-0.894,0.23-1.175-0.223c-0.274-0.442-0.033-0.938,0.471-1.25c0.384-0.239,0.75-0.32,0.931-0.336l0.163,0.53
		L54.93,4.787c-0.229-0.155-0.496-0.089-0.677,0.022c-0.2,0.126-0.286,0.304-0.192,0.451c0.09,0.146,0.256,0.133,0.558,0.012
		c0.55-0.223,1-0.288,1.308,0.207C56.227,5.965,55.94,6.479,55.446,6.786" />
	<path id="path52" fill="#231F20"
	      d="M62.828,3.309c-0.179,0.026-0.207,0.083-0.189,0.225l0.026,0.201
		c0.02,0.135,0.053,0.166,0.141,0.152l-0.021,0.334c-0.373,0.076-0.438,0.24-1.009,0.317c-0.764,0.103-1.461-0.181-1.591-1.153
		c-0.122-0.891,0.397-1.422,1.229-1.535c0.497-0.067,0.884,0.078,1.048,0.146l-0.068,0.605l-0.229,0.03
		c-0.112-0.264-0.356-0.343-0.626-0.308c-0.478,0.066-0.695,0.369-0.614,0.964c0.081,0.601,0.335,0.833,0.804,0.771
		c0.115-0.016,0.253-0.07,0.329-0.122l-0.044-0.321c-0.019-0.139-0.059-0.189-0.242-0.167l-0.047,0.007l0.026-0.352l1.007-0.136
		l0.117,0.332L62.828,3.309" />
	<path id="path54" fill="#231F20"
	      d="M65.235,2.24c-0.407-0.034-0.621,0.176-0.674,0.826c-0.053,0.651,0.125,0.893,0.532,0.924
		c0.418,0.035,0.623-0.175,0.674-0.828C65.821,2.514,65.653,2.273,65.235,2.24 M65.056,4.466c-0.789-0.063-1.319-0.474-1.24-1.46
		c0.081-0.986,0.667-1.306,1.458-1.242c0.804,0.063,1.321,0.474,1.243,1.46C66.437,4.21,65.859,4.531,65.056,4.466" />
	<path id="path56" fill="#231F20"
	      d="M69.398,3.336c0.02-0.181-0.008-0.277-0.276-0.349l-0.246-0.069l-0.433,1.58
		c-0.036,0.139-0.02,0.203,0.146,0.246L68.429,5.06l-0.939-0.256l0.018-0.354c0.169,0.046,0.217,0.002,0.256-0.139l0.43-1.579
		l-0.247-0.068c-0.268-0.074-0.338-0.005-0.415,0.162l-0.256-0.129l0.241-0.61l2.269,0.619l-0.101,0.65L69.398,3.336" />
	<path id="path58" fill="#231F20"
	      d="M72.145,6.695l-0.864-0.44l0.088-0.344c0.156,0.08,0.21,0.046,0.276-0.082l0.267-0.525
		l-0.884-0.453l-0.267,0.524c-0.068,0.13-0.062,0.197,0.09,0.274l-0.222,0.273l-0.867-0.442l0.089-0.341
		c0.155,0.079,0.212,0.046,0.277-0.083l0.696-1.368c0.068-0.134,0.061-0.195-0.096-0.275l0.228-0.271l0.864,0.441l-0.091,0.341
		c-0.151-0.078-0.205-0.05-0.274,0.086l-0.214,0.42l0.884,0.45L72.34,4.46c0.068-0.134,0.062-0.193-0.094-0.273l0.226-0.273
		l0.864,0.44l-0.09,0.341c-0.154-0.078-0.205-0.047-0.273,0.087l-0.697,1.365c-0.064,0.13-0.06,0.197,0.092,0.272L72.145,6.695" />
	<path id="path60" fill="#231F20"
	      d="M75.226,6.282c-0.314-0.259-0.61-0.21-1.025,0.292c-0.415,0.507-0.407,0.804-0.089,1.065
		c0.321,0.265,0.611,0.21,1.024-0.293C75.551,6.841,75.551,6.548,75.226,6.282 M73.808,8.008c-0.613-0.503-0.811-1.142-0.184-1.907
		c0.63-0.764,1.294-0.689,1.907-0.188c0.621,0.512,0.813,1.145,0.186,1.909C75.087,8.588,74.429,8.52,73.808,8.008" />
	<path id="path62" fill="#231F20"
	      d="M77.18,9.081l0.198,0.245c0.163,0.203,0.341,0.216,0.489,0.094
		c0.146-0.116,0.171-0.275,0.005-0.483L77.67,8.688L77.18,9.081z M76.853,9.344L76.264,9.82l0.232,0.292
		c0.18,0.224,0.385,0.239,0.562,0.094c0.18-0.143,0.202-0.358,0.018-0.586L76.853,9.344z M76.229,10.42l-0.809-1.002l0.223-0.277
		c0.105,0.133,0.173,0.128,0.285,0.038l1.195-0.961c0.118-0.095,0.136-0.156,0.028-0.289L77.47,7.77l0.754,0.938
		c0.404,0.505,0.45,0.938,0.094,1.227c-0.166,0.133-0.436,0.138-0.64,0.037c0.127,0.327,0.026,0.616-0.2,0.798
		C77.099,11.076,76.635,10.923,76.229,10.42" />
	<path id="path64" fill="#231F20"
	      d="M80.288,13.138l-1.083,0.554c-0.497,0.252-1.015,0.003-1.34-0.636
		c-0.33-0.649-0.228-1.216,0.265-1.467l1.088-0.556c0.13-0.067,0.158-0.125,0.081-0.277l0.342-0.089l0.458,0.894l-0.275,0.22
		c-0.08-0.15-0.14-0.161-0.275-0.093l-1.089,0.554c-0.217,0.111-0.289,0.326-0.14,0.614c0.151,0.298,0.368,0.368,0.583,0.258
		l1.092-0.557c0.133-0.068,0.161-0.125,0.084-0.273l0.341-0.093l0.415,0.816l-0.269,0.226C80.485,13.08,80.422,13.069,80.288,13.138
		" />
	<path id="path66" fill="#231F20"
	      d="M81.252,15.615l-0.099-0.38l-0.729,0.194l0.096,0.367c0.075,0.275,0.252,0.382,0.476,0.323
		C81.217,16.06,81.324,15.888,81.252,15.615 M79.444,17.48l-0.2-0.752c0.262-0.466,0.989-0.372,0.851-0.887l-0.079-0.305
		l-0.487,0.129c-0.14,0.035-0.184,0.082-0.14,0.247l-0.354,0.019l-0.25-0.941l0.314-0.162c0.046,0.17,0.107,0.188,0.248,0.15
		l1.483-0.391c0.142-0.038,0.187-0.09,0.142-0.254l0.355-0.015l0.338,1.285c0.165,0.623,0.005,1.059-0.469,1.183
		c-0.311,0.083-0.565-0.023-0.771-0.313c-0.002,0.343-0.274,0.499-0.443,0.581c-0.195,0.095-0.254,0.156-0.202,0.351l0.015,0.057
		L79.444,17.48" />
	<path id="path68" fill="#231F20"
	      d="M80.699,20.709c-0.009-0.179-0.067-0.215-0.205-0.207l-0.205,0.01
		c-0.138,0.008-0.17,0.04-0.167,0.128l-0.33-0.054c-0.044-0.375-0.202-0.454-0.228-1.03c-0.042-0.768,0.303-1.439,1.282-1.488
		c0.897-0.044,1.384,0.517,1.425,1.357c0.023,0.5-0.153,0.874-0.235,1.03l-0.595-0.121l-0.012-0.229
		c0.273-0.09,0.373-0.323,0.357-0.599c-0.022-0.48-0.307-0.721-0.907-0.693c-0.606,0.031-0.856,0.264-0.835,0.738
		c0.004,0.116,0.047,0.256,0.093,0.338l0.322-0.019c0.142-0.007,0.195-0.042,0.188-0.227l-0.004-0.046l0.349,0.056l0.049,1.014
		l-0.34,0.087L80.699,20.709" />
	<path id="path70" fill="#231F20"
	      d="M79.276,23.67l0.306-2.011l0.354-0.023c-0.025,0.17,0.023,0.216,0.166,0.237l1.518,0.231
		c0.147,0.023,0.203-0.01,0.229-0.178l0.33,0.131l-0.294,1.92l-0.62-0.094l-0.014-0.279c0.208,0.002,0.262-0.046,0.306-0.336
		l0.069-0.448L81,22.725l-0.063,0.406c-0.025,0.171-0.008,0.241,0.128,0.261l-0.109,0.266l-0.62-0.092l-0.031-0.289
		c0.141,0.021,0.18-0.038,0.205-0.21l0.062-0.406l-0.682-0.103l-0.095,0.617c-0.04,0.271,0.026,0.332,0.207,0.397l-0.096,0.274
		L79.276,23.67" />
	<path id="path72" fill="#231F20"
	      d="M80.131,27.657l-1.956-0.738l0.186-0.491l1.772-0.508c0.122-0.035,0.336-0.061,0.336-0.061
		s-0.2-0.052-0.288-0.086l-0.86-0.325c-0.136-0.051-0.199-0.039-0.259,0.124l-0.3-0.191l0.297-0.786l0.352,0.052
		c-0.061,0.159-0.023,0.215,0.112,0.266l1.437,0.539c0.14,0.054,0.2,0.038,0.262-0.123l0.295,0.195l-0.266,0.705l-1.611,0.464
		c-0.126,0.036-0.345,0.056-0.345,0.056s0.203,0.054,0.303,0.094l0.735,0.274c0.139,0.054,0.2,0.035,0.261-0.123l0.298,0.188
		l-0.298,0.791l-0.348-0.054C80.304,27.761,80.269,27.709,80.131,27.657" />
	<path id="path74" fill="#231F20"
	      d="M77.152,28.626c0.275-0.438,0.616-0.663,0.781-0.756l0.401,0.424l-0.128,0.204
		c-0.301-0.082-0.556,0.111-0.702,0.345c-0.112,0.175-0.143,0.413,0.044,0.529c0.161,0.104,0.31,0.026,0.606-0.297
		c0.294-0.333,0.702-0.594,1.155-0.312c0.438,0.278,0.438,0.829,0.123,1.332c-0.24,0.38-0.535,0.614-0.691,0.707l-0.377-0.405
		l0.123-0.197c0.271,0.038,0.487-0.139,0.6-0.319c0.126-0.196,0.123-0.394-0.023-0.49c-0.143-0.09-0.289-0.003-0.506,0.238
		c-0.398,0.436-0.771,0.696-1.269,0.384C76.808,29.705,76.842,29.118,77.152,28.626" />
	<path id="path76" fill="#231F20"
	      d="M75.289,31.105l0.653-0.734l0.307,0.177c-0.112,0.126-0.098,0.193,0.011,0.288l1.147,1.02
		c0.112,0.099,0.177,0.105,0.289-0.024l0.21,0.286l-0.653,0.732l-0.305-0.175c0.112-0.128,0.1-0.191-0.013-0.292l-1.146-1.017
		c-0.11-0.098-0.176-0.104-0.288,0.021L75.289,31.105" />
	<path id="path78" fill="#231F20"
	      d="M73.658,32.54c0.403-0.322,0.801-0.427,0.986-0.46l0.242,0.535l-0.188,0.148
		c-0.259-0.177-0.562-0.077-0.773,0.096c-0.164,0.13-0.272,0.343-0.132,0.518c0.118,0.147,0.285,0.125,0.669-0.085
		c0.388-0.217,0.859-0.332,1.191,0.082c0.327,0.408,0.146,0.928-0.315,1.299c-0.352,0.282-0.705,0.405-0.884,0.445l-0.226-0.509
		l0.185-0.146c0.241,0.128,0.503,0.03,0.669-0.105c0.183-0.146,0.246-0.333,0.137-0.469c-0.107-0.132-0.271-0.1-0.555,0.057
		c-0.52,0.287-0.959,0.407-1.324-0.047C72.982,33.449,73.207,32.903,73.658,32.54" />
	<path id="path80" fill="#231F20"
	      d="M59.515,38.319l-1.31-0.377l0.027-0.356l0.168,0.049c0.172,0.049,0.228,0.013,0.266-0.127
		l0.382-1.333c-0.093,0.049-0.249,0.071-0.517,0.025l0.111-0.387c0.284,0.014,0.457-0.02,0.75-0.283l0.533,0.152l-0.578,2.021
		c-0.038,0.138-0.005,0.203,0.164,0.251l0.169,0.045L59.515,38.319" />
	<path id="path82" fill="#231F20"
	      d="M62.228,36.434c-0.239-0.021-0.403,0.063-0.42,0.229c-0.017,0.167,0.129,0.314,0.356,0.442
		c0.239-0.083,0.408-0.202,0.425-0.371C62.606,36.568,62.455,36.457,62.228,36.434 M62.125,37.525
		c-0.293,0.105-0.508,0.251-0.528,0.469c-0.018,0.19,0.169,0.349,0.45,0.377c0.27,0.023,0.49-0.09,0.51-0.282
		C62.577,37.868,62.388,37.684,62.125,37.525 M62.008,38.765c-0.722-0.067-1.154-0.4-1.111-0.837
		c0.036-0.377,0.356-0.562,0.705-0.677c-0.284-0.162-0.523-0.363-0.492-0.666c0.036-0.385,0.484-0.609,1.155-0.546
		c0.641,0.061,1.059,0.367,1.021,0.751c-0.028,0.303-0.296,0.456-0.605,0.564c0.322,0.177,0.604,0.417,0.567,0.796
		C63.207,38.588,62.709,38.833,62.008,38.765" />
	<path id="path84" fill="#231F20"
	      d="M65.324,36.46c-0.313,0.03-0.478,0.254-0.445,0.577c0.029,0.302,0.21,0.486,0.511,0.456
		c0.276-0.025,0.515-0.22,0.48-0.569C65.849,36.694,65.698,36.425,65.324,36.46 M65.316,38.773
		c-0.175,0.016-0.507-0.009-0.621-0.082l-0.036-0.374c0.127,0.036,0.313,0.051,0.479,0.036c0.468-0.045,0.737-0.28,0.794-0.745
		c-0.086,0.14-0.329,0.276-0.588,0.299c-0.641,0.065-1.041-0.276-1.092-0.809c-0.054-0.548,0.341-0.979,1.034-1.045
		c0.803-0.079,1.221,0.402,1.288,1.097C66.651,37.978,66.291,38.68,65.316,38.773" />
	<path id="path86" fill="#231F20"
	      d="M69.438,37.944l-1.314,0.347l-0.16-0.317l0.17-0.046c0.173-0.047,0.2-0.105,0.163-0.247
		l-0.354-1.339c-0.054,0.089-0.179,0.189-0.433,0.287l-0.1-0.388c0.249-0.137,0.383-0.251,0.498-0.629l0.535-0.142l0.536,2.031
		c0.038,0.142,0.101,0.178,0.269,0.131l0.171-0.042L69.438,37.944" />
</g>
<path id="path118" fill="#231F20"
      d="M11.098,60.475c0-3.744,2.531-5.952,5.864-5.952c1.266,0,2.003,0.208,2.65,0.396l0.565-0.495
	h0.257l0.119,3.745h-0.359c-0.854-2.292-2.067-2.942-3.335-2.942c-1.983,0-3.914,1.487-3.914,5.078c0,2.806,1.401,5.352,4.309,5.352
	c0.839,0,1.744-0.239,1.744-0.51c0-0.583,0.017-2.139-0.033-3.458l-0.069-0.068l-1.676-0.085v-0.579h4.789v0.579l-1.233,0.085
	l-0.069,0.068c-0.033,1.094-0.051,2.327-0.033,3.643c-0.205,0.427-1.845,1.094-3.572,1.094
	C13.613,66.425,11.098,64.255,11.098,60.475" />
<path id="path122" fill="#231F20"
      d="M38.217,65.673l1.832-0.084l0.068-0.069c0.016-0.633,0.051-2.837,0.051-5.147
	c0-2.307,0-4.206-0.051-4.804l-0.053-0.085h-2.035c-0.358,0-0.786,0.615-1.487,2.685h-0.341l0.136-3.745h0.308l0.496,0.288h7.679
	l0.495-0.288h0.309l0.135,3.745h-0.341c-0.718-2.087-1.127-2.685-1.487-2.685h-2.035l-0.051,0.085
	c-0.018,0.41-0.052,2.719-0.052,5.026c0,2.31,0.034,4.309,0.052,4.925l0.068,0.069l1.882,0.084v0.583h-5.577V65.673" />
<path id="path120" fill="#231F20"
      d="M29.959,52.558c0-0.546,0.343-0.974,0.924-0.974c0.548,0,0.889,0.359,0.889,0.906
	c0,0.548-0.358,0.974-0.94,0.974C30.302,53.464,29.959,53.104,29.959,52.558 M26.759,52.558c0-0.546,0.344-0.974,0.927-0.974
	c0.546,0,0.889,0.359,0.889,0.906c0,0.548-0.359,0.974-0.941,0.974C27.103,53.464,26.759,53.104,26.759,52.558 M32.814,60.475
	c0-3.454-1.352-5.18-3.522-5.18s-3.557,1.727-3.557,5.18c0,3.455,1.351,5.182,3.521,5.182C31.431,65.656,32.814,63.93,32.814,60.475
	 M23.889,60.646c0-3.882,2.378-6.124,5.403-6.124c3.403,0,5.371,2.398,5.371,5.781c0,3.883-2.379,6.121-5.406,6.121
	C25.855,66.425,23.889,64.032,23.889,60.646" />
<path id="path124" fill="#231F20"
      d="M47.811,65.673l1.677-0.084l0.068-0.069c0.016-0.784,0.052-2.837,0.052-5.147
	c0-2.307-0.036-4.241-0.052-4.924l-0.068-0.068l-1.677-0.086v-0.583h7.508l0.668-0.288h0.256l0.12,3.745H56.02
	c-0.616-1.729-1.164-2.583-1.453-2.6l-3.231-0.172l-0.053,0.086c-0.016,0.785-0.051,2.6-0.051,4.513c0.771,0,2.444-0.051,2.89-0.084
	l0.069-0.068l0.614-1.197h0.323c-0.015,0.479-0.031,1.214-0.031,1.675c0,0.444,0.017,1.401,0.031,1.917h-0.323l-0.614-1.421
	l-0.069-0.068c-0.53-0.018-2.052-0.05-2.89-0.05c0,2.171,0.035,3.915,0.051,4.786l0.053,0.085l3.487-0.185
	c0.291-0.02,1.06-0.721,1.676-2.738h0.394c-0.222,3.333-0.273,3.608-0.564,3.608h-8.517V65.673" />
<path id="path128" fill="#231F20"
      d="M79.942,60.475c0-3.454-1.349-5.182-3.52-5.182c-2.175,0-3.56,1.728-3.56,5.182
	c0,3.455,1.351,5.182,3.524,5.182C78.56,65.656,79.942,63.93,79.942,60.475 M71.016,60.646c0-3.882,2.378-6.124,5.407-6.124
	c3.402,0,5.369,2.398,5.369,5.781c0,3.883-2.38,6.121-5.404,6.121C72.983,66.425,71.016,64.032,71.016,60.646" />
<path id="path130" fill="#231F20"
      d="M90.837,57.688c0-0.94-0.41-1.64-1.179-2c-0.428-0.205-0.961-0.325-2.036-0.325h-0.564
	l-0.051,0.051c-0.018,0.736-0.036,2.977-0.052,4.976C89.93,60.304,90.837,59.348,90.837,57.688 M83.501,65.673l1.707-0.083
	l0.072-0.07c0.016-0.496,0.052-2.837,0.052-5.147c0-2.307-0.036-4.155-0.052-4.924l-0.072-0.068l-1.707-0.086v-0.583
	c1.539,0,3.181-0.032,4.055-0.032c1.349,0,2.137,0.086,2.769,0.274c1.642,0.495,2.359,1.555,2.359,2.72
	c0,1.692-1.146,2.495-2.549,2.939v0.035c0.446,0.512,1.214,1.917,2.205,3.66c0.431,0.754,0.841,1.315,1.403,1.35l0.378,0.017v0.583
	h-2.567l-0.068-0.067c-0.631-1.285-1.077-2.327-2.152-4.244c-0.226-0.391-0.429-0.715-0.684-1.007
	c-0.615,0.088-1.198,0.12-1.694,0.12c-0.017,2.036,0.034,3.949,0.052,4.463l0.066,0.07l1.576,0.083v0.583h-5.148V65.673" />
<path id="path132" fill="#231F20"
      d="M95.401,60.475c0-3.744,2.531-5.952,5.864-5.952c1.267,0,2.003,0.208,2.652,0.396l0.564-0.495
	h0.256l0.12,3.745h-0.36c-0.854-2.292-2.068-2.942-3.333-2.942c-1.983,0-3.914,1.487-3.914,5.078c0,2.806,1.401,5.352,4.309,5.352
	c0.838,0,1.742-0.239,1.742-0.51c0-0.583,0.019-2.139-0.033-3.458l-0.069-0.068l-1.674-0.085v-0.579h4.788v0.579l-1.234,0.085
	l-0.064,0.068c-0.038,1.094-0.054,2.327-0.038,3.643c-0.205,0.427-1.845,1.094-3.57,1.094
	C97.917,66.425,95.401,64.255,95.401,60.475" />
<path id="path126" fill="#231F20"
      d="M66.775,62.973c0-1.624-1.111-2.258-2.615-2.258h-1.797c-0.017,2.172,0.033,3.897,0.052,4.805
	l0.084,0.07c0.326,0.017,0.636,0.017,0.84,0.017C65.649,65.607,66.775,64.647,66.775,62.973 M63.44,59.963
	c2.019,0,2.532-0.957,2.532-2.275c0-0.906-0.323-1.589-1.026-1.948c-0.444-0.238-1.078-0.376-2.02-0.376
	c-0.085,0-0.273,0-0.442,0.017l-0.069,0.084c-0.019,0.89-0.068,2.564-0.052,4.498H63.44z M58.941,65.673l1.678-0.083l0.067-0.07
	c0.019-0.598,0.053-2.837,0.053-5.147c0-2.307-0.034-4.172-0.053-4.924l-0.067-0.068l-1.678-0.086v-0.583
	c1.268,0,2.721-0.032,3.73-0.032c1.247,0,2.206,0.104,2.978,0.343c1.348,0.427,2.17,1.298,2.17,2.548
	c0,1.469-0.974,2.342-2.087,2.614v0.036c1.812,0.084,2.891,1.145,2.891,2.532c0,2.323-2.088,3.54-5.405,3.54
	c-1.111,0-2.906-0.035-4.276-0.035V65.673" />
<path id="path134" fill="#231F20"
      d="M108.107,62.647h0.395c0.597,2.171,1.569,3.077,2.769,3.077c1.401,0,2.29-0.94,2.29-2.171
	c0-2.976-5.249-2.225-5.249-5.985c0-1.59,1.25-3.046,3.42-3.046c1.111,0,2.004,0.345,2.19,0.396l0.512-0.495h0.323l0.104,3.745
	H114.5c-0.718-2.088-1.657-2.943-2.819-2.943c-1.007,0-1.88,0.668-1.88,1.796c0,2.856,5.334,2.412,5.334,6.021
	c0,1.725-1.297,3.382-3.967,3.382c-0.735,0-1.606-0.168-2.359-0.666l-0.344,0.666h-0.357V62.647" />
<path id="path136" fill="#231F20"
      d="M4.865,82.286c0-0.65,0.018-1.043,0.018-2.734c0-1.354-0.018-2.428-0.035-3.965L4.78,75.519
	l-1.643-0.088v-0.582h4.891v0.582l-1.385,0.088l-0.069,0.068c-0.015,1.281-0.031,4.047-0.031,6.631c0,2.152,0.493,3.607,2.769,3.607
	c2.376,0,3.06-1.387,3.06-3.934c0-2.223-0.032-4.631-0.067-6.305l-0.067-0.068l-1.575-0.088v-0.582h4.532v0.582l-1.676,0.088
	l-0.068,0.068c-0.052,1.826-0.052,4.338-0.033,6.459c0.017,2.943-1.37,4.516-4.242,4.516C6.353,86.562,4.865,85.108,4.865,82.286" />
<path id="path138" fill="#231F20"
      d="M16.731,85.808l1.677-0.084l0.067-0.068c0.052-1.832,0.052-3.182,0.052-4.891
	c0-1.711,0-2.65-0.052-5.178l-0.067-0.068l-1.677-0.088v-0.582h3.268c2.085,2.924,4.464,6.342,6.174,8.787h0.032
	c-0.032-3.281-0.068-6.375-0.103-8.049l-0.068-0.068l-1.571-0.088v-0.582h4.529v0.582l-1.676,0.088l-0.066,0.068
	c-0.051,1.828-0.051,3.178-0.051,7.469v3.42h-0.841c-2.118-3.012-4.65-6.551-6.805-9.625h-0.033c0.018,4,0.067,7.092,0.103,8.805
	l0.066,0.068l1.575,0.084v0.582h-4.533V85.808" />
<path id="path140" fill="#231F20"
      d="M31.045,85.808l1.676-0.084l0.068-0.068c0.035-0.529,0.053-2.84,0.053-5.146
	c0-2.311-0.018-4.342-0.053-4.922l-0.068-0.068l-1.676-0.088v-0.582h5.199v0.582l-1.66,0.088l-0.068,0.068
	c-0.033,0.457-0.051,2.836-0.051,5.141c0,2.311,0.034,4.346,0.051,4.928l0.068,0.068l1.66,0.084v0.582h-5.199V85.808" />
<path id="path142" fill="#231F20"
      d="M38.722,75.481l-1.024-0.051v-0.582h4.48v0.582l-1.521,0.068l-0.07,0.068
	c0.959,2.479,2.087,5.471,3.217,8.359h0.035c0.837-2.324,2.29-6.461,2.853-8.377l-0.051-0.051l-1.384-0.068v-0.582h3.778v0.582
	l-0.992,0.051c-0.889,2.258-2.941,7.574-4.292,11.08h-0.461C41.527,82.286,40.007,78.558,38.722,75.481" />
<path id="path144" fill="#231F20"
      d="M50.315,85.808l1.677-0.084l0.068-0.068c0.016-0.787,0.052-2.84,0.052-5.146
	c0-2.311-0.036-4.238-0.052-4.922l-0.068-0.068l-1.677-0.088v-0.582h7.509l0.667-0.291h0.256l0.12,3.744h-0.343
	c-0.616-1.729-1.161-2.582-1.453-2.598l-3.231-0.172l-0.052,0.086c-0.017,0.787-0.052,2.6-0.052,4.512
	c0.77,0,2.444-0.051,2.89-0.086l0.069-0.064l0.614-1.199h0.326c-0.017,0.479-0.034,1.213-0.034,1.674
	c0,0.447,0.018,1.404,0.034,1.916H57.31l-0.614-1.418l-0.069-0.068c-0.53-0.02-2.052-0.051-2.89-0.051
	c0,2.172,0.035,3.916,0.052,4.787l0.052,0.086l3.487-0.188c0.292-0.018,1.06-0.719,1.676-2.736h0.394
	c-0.222,3.334-0.273,3.607-0.564,3.607h-8.517V85.808" />
<path id="path148" fill="#231F20"
      d="M73.947,82.782h0.396c0.601,2.172,1.573,3.078,2.77,3.078c1.401,0,2.293-0.939,2.293-2.174
	c0-2.973-5.253-2.221-5.253-5.98c0-1.59,1.251-3.045,3.422-3.045c1.113,0,2.003,0.342,2.189,0.393l0.515-0.496h0.323l0.103,3.744
	h-0.359c-0.716-2.084-1.657-2.939-2.822-2.939c-1.007,0-1.88,0.666-1.88,1.793c0,2.855,5.335,2.41,5.335,6.02
	c0,1.727-1.298,3.387-3.968,3.387c-0.734,0-1.606-0.172-2.359-0.668l-0.344,0.668h-0.359V82.782" />
<path id="path146" fill="#231F20"
      d="M68.784,77.823c0-0.939-0.408-1.641-1.18-2c-0.427-0.205-0.957-0.324-2.033-0.324h-0.568
	l-0.049,0.051c-0.018,0.732-0.034,2.975-0.052,4.977C67.878,80.44,68.784,79.479,68.784,77.823 M61.448,85.808l1.711-0.084
	l0.068-0.068c0.016-0.496,0.051-2.84,0.051-5.146c0-2.311-0.035-4.156-0.051-4.922l-0.068-0.068l-1.711-0.088v-0.582
	c1.539,0,3.181-0.033,4.055-0.033c1.35,0,2.136,0.086,2.769,0.273c1.641,0.498,2.361,1.557,2.361,2.719
	c0,1.689-1.148,2.496-2.55,2.939v0.035c0.444,0.512,1.214,1.914,2.207,3.656c0.428,0.754,0.838,1.318,1.401,1.354l0.376,0.016v0.582
	h-2.563l-0.068-0.068c-0.635-1.281-1.079-2.326-2.155-4.24c-0.223-0.393-0.428-0.719-0.684-1.008
	c-0.615,0.084-1.196,0.117-1.694,0.117c-0.018,2.035,0.034,3.951,0.052,4.465l0.067,0.068l1.575,0.084v0.582h-5.148V85.808" />
<path id="path150" fill="#231F20"
      d="M83.458,85.808l1.676-0.084l0.068-0.068c0.034-0.529,0.052-2.84,0.052-5.146
	c0-2.311-0.018-4.342-0.052-4.922l-0.068-0.068l-1.676-0.088v-0.582h5.197v0.582l-1.657,0.088l-0.071,0.068
	c-0.031,0.457-0.049,2.836-0.049,5.141c0,2.311,0.036,4.346,0.049,4.928l0.071,0.068l1.657,0.084v0.582h-5.197V85.808" />
<path id="path152" fill="#231F20"
      d="M92.727,85.808l1.829-0.084l0.068-0.068c0.016-0.633,0.051-2.84,0.051-5.146
	c0-2.311,0-4.207-0.051-4.805l-0.049-0.086h-2.036c-0.36,0-0.789,0.617-1.488,2.684H90.71l0.133-3.744h0.311l0.497,0.291h7.677
	l0.494-0.291h0.311l0.135,3.744h-0.34c-0.718-2.084-1.13-2.684-1.491-2.684h-2.033l-0.052,0.086
	c-0.016,0.412-0.051,2.719-0.051,5.023c0,2.311,0.035,4.313,0.051,4.928l0.068,0.068l1.882,0.084v0.582h-5.574V85.808" />
<path id="path154" fill="#231F20"
      d="M102.317,85.808l1.679-0.084l0.066-0.068c0.018-0.787,0.051-2.84,0.051-5.146
	c0-2.311-0.033-4.238-0.051-4.922l-0.066-0.068l-1.679-0.088v-0.582h7.509l0.665-0.291h0.257l0.121,3.744h-0.344
	c-0.615-1.729-1.16-2.582-1.452-2.598l-3.232-0.172l-0.052,0.086c-0.016,0.787-0.051,2.6-0.051,4.512
	c0.771,0,2.446-0.051,2.892-0.086l0.066-0.064l0.617-1.199h0.323c-0.016,0.479-0.034,1.213-0.034,1.674
	c0,0.447,0.019,1.404,0.034,1.916h-0.323l-0.617-1.418l-0.066-0.068c-0.531-0.02-2.052-0.051-2.892-0.051
	c0,2.172,0.035,3.916,0.051,4.787l0.052,0.086l3.488-0.188c0.292-0.018,1.06-0.719,1.678-2.736h0.392
	c-0.22,3.334-0.273,3.607-0.563,3.607h-8.519V85.808" />
<path id="path156" fill="#231F20"
      d="M115.469,85.808l1.831-0.084l0.067-0.068c0.018-0.633,0.052-2.84,0.052-5.146
	c0-2.311,0-4.207-0.052-4.805l-0.051-0.086h-2.036c-0.36,0-0.786,0.617-1.488,2.684h-0.34l0.135-3.744h0.308l0.497,0.291h7.679
	l0.495-0.291h0.309l0.136,3.744h-0.343c-0.717-2.084-1.127-2.684-1.485-2.684h-2.037l-0.051,0.086
	c-0.015,0.412-0.051,2.719-0.051,5.023c0,2.311,0.036,4.313,0.051,4.928l0.07,0.068l1.881,0.084v0.582h-5.576V85.808" />
<path id="path158" fill="#231F20"
      d="M2.388,101.29h122.78c0.599,0,0.698-0.088,0.698-0.201c0-0.109-0.1-0.199-0.698-0.199H2.388
	c-0.6,0-0.703,0.09-0.703,0.199C1.685,101.202,1.788,101.29,2.388,101.29" />
</svg>